<svg width="352" height="197" viewBox="0 0 352 197" fill="none" xmlns="http://www.w3.org/2000/svg">
<rect width="352" height="197" rx="21" fill="#EDECEE"/>
<path d="M152.997 73.8602C139.409 76.3586 129.66 75.8311 128.237 71.8213C125.995 65.5001 145.292 52.9188 171.339 43.7201C197.387 34.5214 220.321 32.1887 222.563 38.5099C223.995 42.5443 216.652 49.1288 204.379 55.7564" stroke="#364D9D" stroke-width="2"/>
<ellipse cx="174.632" cy="54.1273" rx="30.4239" ry="30.3534" fill="#364D9D"/>
<path fill-rule="evenodd" clip-rule="evenodd" d="M160.434 44.868C160.434 43.6489 161.424 42.6605 162.646 42.6605H186.986C188.208 42.6605 189.198 43.6489 189.198 44.868V64.7357C189.198 65.9549 188.208 66.9432 186.986 66.9432H162.646C161.424 66.9432 160.434 65.9549 160.434 64.7357V44.868ZM186.986 44.868H162.646V64.7357H186.986V44.868Z" fill="#EDECEE"/>
<path fill-rule="evenodd" clip-rule="evenodd" d="M160.434 48.1793C160.434 47.5697 160.929 47.0756 161.54 47.0756H188.092C188.703 47.0756 189.198 47.5697 189.198 48.1793C189.198 48.7889 188.703 49.2831 188.092 49.2831H161.54C160.929 49.2831 160.434 48.7889 160.434 48.1793Z" fill="#EDECEE"/>
<path fill-rule="evenodd" clip-rule="evenodd" d="M169.284 51.4906C169.895 51.4906 170.391 51.9848 170.391 52.5944C170.391 53.7653 170.857 54.8883 171.687 55.7163C172.517 56.5442 173.642 57.0094 174.816 57.0094C175.99 57.0094 177.115 56.5442 177.945 55.7163C178.775 54.8883 179.241 53.7653 179.241 52.5944C179.241 51.9848 179.737 51.4906 180.348 51.4906C180.959 51.4906 181.454 51.9848 181.454 52.5944C181.454 54.3508 180.755 56.0352 179.51 57.2772C178.265 58.5192 176.576 59.2169 174.816 59.2169C173.055 59.2169 171.367 58.5192 170.122 57.2772C168.877 56.0352 168.178 54.3508 168.178 52.5944C168.178 51.9848 168.673 51.4906 169.284 51.4906Z" fill="#EDECEE"/>
<path d="M152.997 73.8601C155.289 73.4386 157.691 72.9309 160.18 72.3393M204.379 55.7563C202.067 57.0052 199.579 58.2556 196.942 59.4908" stroke="#F7F7F8" stroke-width="2"/>
<path d="M48.7498 155.682C48.2499 155.682 48 155.431 48 154.929V134.21C48 133.736 48.1944 133.498 48.5832 133.498H52.7074C53.0962 133.498 53.2906 133.708 53.2906 134.126V136.303C53.2906 136.47 53.3322 136.582 53.4156 136.638C53.4989 136.666 53.61 136.61 53.7488 136.47C54.5265 135.773 55.2763 135.173 55.9984 134.67C56.7482 134.168 57.512 133.777 58.2896 133.498C59.095 133.192 59.942 133.038 60.8307 133.038C62.386 133.038 63.6635 133.401 64.6633 134.126C65.6631 134.852 66.3574 135.773 66.7462 136.889C66.8017 137 66.885 137.042 66.9961 137.014C67.1072 136.986 67.2183 136.917 67.3294 136.805C68.0515 136.08 68.8152 135.438 69.6206 134.88C70.426 134.322 71.2592 133.889 72.1201 133.582C72.981 133.247 73.842 133.08 74.7029 133.08C76.6747 133.08 78.23 133.68 79.3686 134.88C80.5073 136.052 81.0766 137.656 81.0766 139.693V154.803C81.0766 155.389 80.785 155.682 80.2018 155.682H76.3692C76.1193 155.682 75.9388 155.626 75.8277 155.515C75.7166 155.403 75.661 155.208 75.661 154.929V140.53C75.661 139.442 75.3833 138.605 74.8279 138.019C74.3002 137.405 73.4948 137.098 72.4117 137.098C71.7729 137.098 71.162 137.224 70.5787 137.475C69.9955 137.698 69.4679 137.991 68.9957 138.354C68.5236 138.716 68.107 139.079 67.746 139.442C67.5516 139.637 67.4127 139.833 67.3294 140.028C67.2739 140.195 67.2461 140.405 67.2461 140.656V154.803C67.2461 155.389 66.9545 155.682 66.3713 155.682H62.5387C62.3165 155.682 62.136 155.626 61.9972 155.515C61.8861 155.403 61.8305 155.208 61.8305 154.929V140.53C61.8305 139.442 61.5667 138.605 61.039 138.019C60.5113 137.405 59.6921 137.098 58.5812 137.098C57.6369 137.098 56.7621 137.335 55.9567 137.81C55.1791 138.284 54.332 138.996 53.4156 139.944V154.845C53.4156 155.403 53.0962 155.682 52.4574 155.682H48.7498Z" fill="#1A181B"/>
<path d="M98.2424 153.38C97.2981 154.217 96.2706 154.887 95.1597 155.389C94.0488 155.863 92.7852 156.101 91.3688 156.101C89.2303 156.101 87.5501 155.543 86.3281 154.426C85.1339 153.282 84.5368 151.803 84.5368 149.99C84.5368 148.455 84.9951 147.13 85.9116 146.013C86.828 144.869 88.1611 143.976 89.9107 143.335C91.6604 142.693 93.7572 142.316 96.2011 142.204L98.284 142.079C98.4507 142.051 98.6034 141.995 98.7423 141.912C98.8811 141.828 98.9506 141.674 98.9506 141.451V140.488C98.9506 139.261 98.5895 138.312 97.8675 137.642C97.1454 136.945 96.1456 136.596 94.8681 136.596C93.896 136.596 92.9796 136.819 92.1186 137.265C91.2855 137.684 90.5634 138.382 89.9524 139.358C89.8691 139.526 89.7719 139.637 89.6608 139.693C89.5775 139.749 89.4108 139.749 89.1609 139.693L85.6616 138.814C85.5227 138.758 85.4117 138.675 85.3283 138.563C85.2728 138.451 85.3283 138.228 85.495 137.893C86.2448 136.303 87.4251 135.103 89.0359 134.294C90.6745 133.485 92.7018 133.08 95.118 133.08C97.2565 133.08 98.9783 133.373 100.284 133.959C101.617 134.545 102.589 135.368 103.2 136.428C103.811 137.461 104.116 138.689 104.116 140.112V154.845C104.116 155.152 104.061 155.375 103.95 155.515C103.866 155.626 103.686 155.682 103.408 155.682H99.8671C99.6171 155.682 99.4366 155.584 99.3255 155.389C99.2144 155.194 99.145 154.957 99.1172 154.678L99.0339 153.422C98.9783 152.948 98.7145 152.934 98.2424 153.38ZM98.9506 145.553C98.9506 145.051 98.7423 144.814 98.3257 144.841L96.6177 144.967C95.729 145.023 94.8681 145.162 94.0349 145.386C93.2295 145.581 92.5074 145.86 91.8687 146.223C91.2577 146.558 90.7578 146.99 90.369 147.52C90.008 148.022 89.8274 148.622 89.8274 149.32C89.8274 150.269 90.1607 151.022 90.8272 151.58C91.5215 152.138 92.4519 152.417 93.6183 152.417C94.3682 152.417 95.0625 152.292 95.7012 152.041C96.34 151.79 96.8954 151.469 97.3676 151.078C97.8397 150.687 98.2146 150.283 98.4923 149.864C98.7978 149.418 98.9506 148.971 98.9506 148.525V145.553Z" fill="#1A181B"/>
<path d="M110.057 155.682C109.78 155.682 109.585 155.626 109.474 155.515C109.363 155.375 109.308 155.18 109.308 154.929V134.21C109.308 133.736 109.502 133.498 109.891 133.498H113.932C114.32 133.498 114.515 133.708 114.515 134.126V136.68C114.515 136.847 114.57 136.959 114.681 137.014C114.793 137.042 114.917 136.973 115.056 136.805C115.667 135.996 116.32 135.326 117.014 134.796C117.736 134.238 118.458 133.819 119.181 133.54C119.93 133.233 120.652 133.08 121.347 133.08C122.347 133.08 122.846 133.303 122.846 133.75V137.768C122.846 138.158 122.666 138.326 122.305 138.27C121.888 138.158 121.444 138.089 120.972 138.061C120.527 138.005 120.111 137.977 119.722 137.977C119.194 137.977 118.625 138.089 118.014 138.312C117.431 138.535 116.889 138.856 116.389 139.275C115.89 139.665 115.487 140.098 115.181 140.572C114.876 141.046 114.723 141.535 114.723 142.037V154.845C114.723 155.403 114.404 155.682 113.765 155.682H110.057Z" fill="#1A181B"/>
<path d="M147.389 154.803C147.527 154.998 147.555 155.194 147.472 155.389C147.389 155.584 147.194 155.682 146.889 155.682H142.306C142.056 155.682 141.848 155.626 141.681 155.515C141.543 155.375 141.418 155.18 141.307 154.929L136.308 145.553C136.224 145.358 136.141 145.246 136.058 145.218C135.974 145.19 135.849 145.26 135.683 145.427L132.225 148.86C132.114 148.971 132.017 149.097 131.933 149.236C131.878 149.376 131.85 149.571 131.85 149.822V154.761C131.85 155.096 131.781 155.333 131.642 155.473C131.503 155.612 131.253 155.682 130.892 155.682H127.268C126.934 155.682 126.712 155.626 126.601 155.515C126.49 155.375 126.435 155.18 126.435 154.929V125.337C126.435 124.862 126.643 124.625 127.059 124.625H131.267C131.656 124.625 131.85 124.848 131.85 125.295V143.251C131.85 143.418 131.892 143.53 131.975 143.586C132.058 143.642 132.183 143.572 132.35 143.376L141.015 134.084C141.404 133.694 141.751 133.498 142.056 133.498H145.847C146.208 133.498 146.417 133.596 146.472 133.791C146.555 133.987 146.472 134.21 146.222 134.461L140.098 140.656C139.987 140.795 139.918 140.935 139.89 141.074C139.862 141.214 139.918 141.423 140.057 141.702L147.389 154.803Z" fill="#1A181B"/>
<path d="M154 146.306C154 147.45 154.264 148.483 154.792 149.404C155.319 150.297 156.041 151.008 156.958 151.538C157.902 152.041 158.93 152.292 160.041 152.292C161.179 152.292 162.207 152.055 163.123 151.58C164.068 151.106 164.956 150.338 165.79 149.278C165.901 149.139 165.998 149.069 166.081 149.069C166.164 149.041 166.303 149.083 166.498 149.194L169.039 150.325C169.4 150.492 169.442 150.743 169.164 151.078C168.331 152.306 167.428 153.296 166.456 154.05C165.512 154.775 164.456 155.305 163.29 155.64C162.151 155.947 160.86 156.101 159.416 156.101C157.305 156.101 155.417 155.626 153.75 154.678C152.084 153.729 150.765 152.417 149.793 150.743C148.849 149.041 148.376 147.088 148.376 144.883C148.376 142.456 148.862 140.363 149.834 138.605C150.834 136.847 152.167 135.494 153.834 134.545C155.5 133.568 157.333 133.08 159.332 133.08C161.443 133.08 163.276 133.54 164.831 134.461C166.414 135.382 167.65 136.707 168.539 138.437C169.428 140.14 169.872 142.218 169.872 144.674C169.872 144.953 169.844 145.176 169.789 145.344C169.761 145.511 169.567 145.609 169.205 145.637H154.458C154.292 145.637 154.167 145.692 154.084 145.804C154.028 145.916 154 146.083 154 146.306ZM163.873 142.539C164.151 142.539 164.331 142.511 164.415 142.456C164.526 142.372 164.581 142.204 164.581 141.953C164.581 141.088 164.387 140.237 163.998 139.4C163.609 138.563 163.04 137.879 162.29 137.349C161.54 136.791 160.624 136.512 159.541 136.512C158.43 136.512 157.458 136.791 156.625 137.349C155.792 137.879 155.153 138.605 154.708 139.526C154.292 140.419 154.084 141.423 154.084 142.539H163.873Z" fill="#1A181B"/>
<path d="M181.382 137.307C181.104 137.307 180.965 137.461 180.965 137.768V148.943C180.965 150.032 181.187 150.785 181.632 151.204C182.076 151.622 182.77 151.831 183.715 151.831H186.172C186.339 151.831 186.478 151.887 186.589 151.999C186.7 152.11 186.756 152.25 186.756 152.417L186.714 154.594C186.714 155.04 186.45 155.319 185.922 155.431C185.506 155.487 185.02 155.543 184.464 155.598C183.909 155.626 183.354 155.654 182.798 155.682C182.27 155.682 181.784 155.682 181.34 155.682C179.479 155.682 178.049 155.25 177.049 154.385C176.049 153.492 175.55 152.152 175.55 150.366V137.851C175.55 137.489 175.383 137.307 175.05 137.307H172.259C171.814 137.307 171.592 137.098 171.592 136.68V134.043C171.592 133.68 171.8 133.498 172.217 133.498H175.3C175.55 133.498 175.675 133.359 175.675 133.08L176.216 126.634C176.244 126.188 176.438 125.964 176.799 125.964H180.507C180.896 125.964 181.09 126.202 181.09 126.676V133.08C181.09 133.331 181.215 133.457 181.465 133.457H186.172C186.589 133.457 186.797 133.652 186.797 134.043V136.68C186.797 137.098 186.561 137.307 186.089 137.307H181.382Z" fill="#1A181B"/>
<path d="M204.168 138.982C203.641 138.284 202.946 137.698 202.086 137.224C201.225 136.749 200.169 136.512 198.919 136.512C197.725 136.512 196.725 136.749 195.92 137.224C195.115 137.698 194.712 138.368 194.712 139.233C194.712 139.651 194.879 140.056 195.212 140.447C195.545 140.837 196.281 141.186 197.42 141.493L202.377 142.832C204.543 143.363 206.085 144.2 207.001 145.344C207.945 146.46 208.418 147.729 208.418 149.153C208.418 150.604 208.001 151.845 207.168 152.878C206.362 153.91 205.224 154.705 203.752 155.264C202.308 155.822 200.655 156.101 198.795 156.101C196.406 156.101 194.365 155.668 192.671 154.803C190.977 153.91 189.782 152.808 189.088 151.497C189.005 151.329 188.963 151.176 188.963 151.036C188.963 150.869 189.033 150.729 189.171 150.618L191.629 149.362C191.851 149.222 192.032 149.167 192.171 149.194C192.31 149.222 192.421 149.292 192.504 149.404C192.921 149.99 193.393 150.52 193.921 150.994C194.476 151.469 195.142 151.845 195.92 152.124C196.725 152.403 197.698 152.529 198.836 152.501C199.697 152.501 200.475 152.389 201.169 152.166C201.891 151.943 202.46 151.636 202.877 151.245C203.294 150.827 203.502 150.325 203.502 149.739C203.502 149.18 203.266 148.692 202.794 148.274C202.322 147.855 201.475 147.492 200.253 147.185L196.003 146.181C193.893 145.679 192.337 144.925 191.338 143.921C190.366 142.916 189.88 141.66 189.88 140.154C189.88 138.758 190.241 137.531 190.963 136.47C191.713 135.41 192.768 134.587 194.129 134.001C195.49 133.387 197.1 133.08 198.961 133.08C201.016 133.08 202.794 133.457 204.293 134.21C205.793 134.963 206.89 135.898 207.584 137.014C207.695 137.154 207.765 137.307 207.793 137.475C207.848 137.642 207.779 137.782 207.584 137.893L205.002 139.191C204.835 139.275 204.682 139.302 204.543 139.275C204.404 139.219 204.28 139.121 204.168 138.982Z" fill="#1A181B"/>
<path d="M217.141 133.498C217.669 133.498 217.933 133.75 217.933 134.252V135.675C217.933 135.87 217.988 135.982 218.1 136.01C218.211 136.01 218.336 135.94 218.474 135.801C218.891 135.41 219.363 135.005 219.891 134.587C220.446 134.168 221.113 133.819 221.89 133.54C222.668 133.233 223.612 133.08 224.723 133.08C226.389 133.08 227.875 133.498 229.181 134.336C230.486 135.145 231.527 136.387 232.305 138.061C233.083 139.707 233.471 141.8 233.471 144.339C233.471 146.962 233.083 149.153 232.305 150.911C231.527 152.641 230.444 153.938 229.056 154.803C227.695 155.668 226.126 156.101 224.348 156.101C223.21 156.101 222.168 155.919 221.224 155.557C220.28 155.194 219.433 154.664 218.683 153.966C218.405 153.715 218.211 153.603 218.1 153.631C217.988 153.659 217.933 153.854 217.933 154.217V161.919C217.933 162.365 217.738 162.588 217.35 162.588H213.101C212.712 162.588 212.517 162.365 212.517 161.919V134.336C212.517 134.029 212.573 133.819 212.684 133.708C212.795 133.568 213.017 133.498 213.35 133.498H217.141ZM217.933 150.241C218.572 150.938 219.252 151.497 219.974 151.915C220.724 152.334 221.557 152.543 222.474 152.543C223.585 152.543 224.543 152.264 225.348 151.706C226.181 151.12 226.82 150.227 227.264 149.027C227.736 147.799 227.973 146.223 227.973 144.297C227.973 142.4 227.736 140.893 227.264 139.777C226.82 138.661 226.181 137.865 225.348 137.391C224.543 136.889 223.64 136.638 222.64 136.638C221.724 136.638 220.905 136.833 220.182 137.224C219.488 137.586 218.933 138.061 218.516 138.647C218.127 139.233 217.933 139.847 217.933 140.488V150.241Z" fill="#1A181B"/>
<path d="M249.904 153.38C248.96 154.217 247.932 154.887 246.822 155.389C245.711 155.863 244.447 156.101 243.031 156.101C240.892 156.101 239.212 155.543 237.99 154.426C236.796 153.282 236.199 151.803 236.199 149.99C236.199 148.455 236.657 147.13 237.573 146.013C238.49 144.869 239.823 143.976 241.573 143.335C243.322 142.693 245.419 142.316 247.863 142.204L249.946 142.079C250.113 142.051 250.265 141.995 250.404 141.912C250.543 141.828 250.612 141.674 250.612 141.451V140.488C250.612 139.261 250.251 138.312 249.529 137.642C248.807 136.945 247.807 136.596 246.53 136.596C245.558 136.596 244.641 136.819 243.78 137.265C242.947 137.684 242.225 138.382 241.614 139.358C241.531 139.526 241.434 139.637 241.323 139.693C241.239 139.749 241.073 139.749 240.823 139.693L237.323 138.814C237.185 138.758 237.074 138.675 236.99 138.563C236.935 138.451 236.99 138.228 237.157 137.893C237.907 136.303 239.087 135.103 240.698 134.294C242.336 133.485 244.364 133.08 246.78 133.08C248.918 133.08 250.64 133.373 251.945 133.959C253.279 134.545 254.251 135.368 254.862 136.428C255.473 137.461 255.778 138.689 255.778 140.112V154.845C255.778 155.152 255.723 155.375 255.611 155.515C255.528 155.626 255.348 155.682 255.07 155.682H251.529C251.279 155.682 251.098 155.584 250.987 155.389C250.876 155.194 250.807 154.957 250.779 154.678L250.696 153.422C250.64 152.948 250.376 152.934 249.904 153.38ZM250.612 145.553C250.612 145.051 250.404 144.814 249.988 144.841L248.28 144.967C247.391 145.023 246.53 145.162 245.697 145.386C244.891 145.581 244.169 145.86 243.531 146.223C242.92 146.558 242.42 146.99 242.031 147.52C241.67 148.022 241.489 148.622 241.489 149.32C241.489 150.269 241.823 151.022 242.489 151.58C243.183 152.138 244.114 152.417 245.28 152.417C246.03 152.417 246.724 152.292 247.363 152.041C248.002 151.79 248.557 151.469 249.029 151.078C249.502 150.687 249.876 150.283 250.154 149.864C250.46 149.418 250.612 148.971 250.612 148.525V145.553Z" fill="#1A181B"/>
<path d="M270.717 133.08C272.384 133.08 273.828 133.373 275.05 133.959C276.272 134.517 277.272 135.256 278.049 136.177C278.855 137.07 279.466 138.019 279.882 139.023C280.049 139.526 279.91 139.791 279.466 139.819L275.8 140.279C275.522 140.335 275.328 140.209 275.216 139.902C274.855 139.289 274.481 138.744 274.092 138.27C273.703 137.796 273.259 137.419 272.759 137.14C272.259 136.861 271.648 136.721 270.926 136.721C269.815 136.721 268.829 137.028 267.968 137.642C267.135 138.228 266.482 139.107 266.01 140.279C265.566 141.451 265.343 142.888 265.343 144.59C265.343 146.32 265.58 147.771 266.052 148.943C266.552 150.115 267.232 151.008 268.093 151.622C268.954 152.208 269.981 152.501 271.176 152.501C272.425 152.501 273.453 152.18 274.258 151.538C275.064 150.869 275.814 149.948 276.508 148.776C276.591 148.664 276.675 148.594 276.758 148.567C276.841 148.539 276.98 148.553 277.174 148.608L279.799 149.32C280.077 149.404 280.16 149.641 280.049 150.032C279.771 150.673 279.368 151.357 278.841 152.082C278.341 152.808 277.716 153.478 276.966 154.092C276.216 154.678 275.314 155.166 274.258 155.557C273.231 155.919 272.05 156.101 270.717 156.101C268.607 156.101 266.732 155.626 265.094 154.678C263.455 153.701 262.164 152.362 261.219 150.659C260.303 148.929 259.845 146.934 259.845 144.674C259.845 142.386 260.317 140.377 261.261 138.647C262.205 136.889 263.497 135.521 265.135 134.545C266.774 133.568 268.634 133.08 270.717 133.08Z" fill="#1A181B"/>
<path d="M288.128 146.306C288.128 147.45 288.392 148.483 288.92 149.404C289.447 150.297 290.169 151.008 291.086 151.538C292.03 152.041 293.058 152.292 294.169 152.292C295.307 152.292 296.335 152.055 297.251 151.58C298.196 151.106 299.084 150.338 299.917 149.278C300.029 149.139 300.126 149.069 300.209 149.069C300.292 149.041 300.431 149.083 300.626 149.194L303.167 150.325C303.528 150.492 303.57 150.743 303.292 151.078C302.459 152.306 301.556 153.296 300.584 154.05C299.64 154.775 298.584 155.305 297.418 155.64C296.279 155.947 294.988 156.101 293.544 156.101C291.433 156.101 289.545 155.626 287.878 154.678C286.212 153.729 284.893 152.417 283.921 150.743C282.977 149.041 282.504 147.088 282.504 144.883C282.504 142.456 282.99 140.363 283.962 138.605C284.962 136.847 286.295 135.494 287.962 134.545C289.628 133.568 291.461 133.08 293.46 133.08C295.571 133.08 297.404 133.54 298.959 134.461C300.542 135.382 301.778 136.707 302.667 138.437C303.556 140.14 304 142.218 304 144.674C304 144.953 303.972 145.176 303.917 145.344C303.889 145.511 303.695 145.609 303.333 145.637H288.586C288.42 145.637 288.295 145.692 288.212 145.804C288.156 145.916 288.128 146.083 288.128 146.306ZM298.001 142.539C298.279 142.539 298.459 142.511 298.543 142.456C298.654 142.372 298.709 142.204 298.709 141.953C298.709 141.088 298.515 140.237 298.126 139.4C297.737 138.563 297.168 137.879 296.418 137.349C295.668 136.791 294.752 136.512 293.669 136.512C292.558 136.512 291.586 136.791 290.753 137.349C289.92 137.879 289.281 138.605 288.836 139.526C288.42 140.419 288.212 141.423 288.212 142.539H298.001Z" fill="#1A181B"/>
<path d="M83.9342 179.408C83.3695 179.408 82.8515 179.305 82.3802 179.1C81.9089 178.89 81.5309 178.586 81.2462 178.19C80.9615 177.788 80.8192 177.301 80.8192 176.727H81.6032C81.6032 177.165 81.7105 177.527 81.9252 177.812C82.1399 178.096 82.4222 178.309 82.7722 178.449C83.1269 178.584 83.5095 178.652 83.9202 178.652C84.3915 178.652 84.7952 178.575 85.1312 178.421C85.4672 178.262 85.7239 178.057 85.9012 177.805C86.0832 177.553 86.1742 177.284 86.1742 177C86.1742 176.589 86.0482 176.255 85.7962 175.999C85.5489 175.737 85.1895 175.534 84.7182 175.39L83.2832 174.928C82.5412 174.671 81.9835 174.382 81.6102 174.06C81.2369 173.738 81.0502 173.283 81.0502 172.695C81.0502 172.041 81.2975 171.507 81.7922 171.092C82.2869 170.676 82.9985 170.469 83.9272 170.469C84.7625 170.469 85.4182 170.66 85.8942 171.043C86.3749 171.425 86.6525 171.927 86.7272 172.548H85.9222C85.8475 172.118 85.6422 171.789 85.3062 171.561C84.9749 171.327 84.5152 171.211 83.9272 171.211C83.2925 171.211 82.8002 171.355 82.4502 171.645C82.1049 171.929 81.9322 172.293 81.9322 172.737C81.9322 173.096 82.0419 173.381 82.2612 173.591C82.4805 173.796 82.8259 173.978 83.2972 174.137L85.0332 174.697C85.6399 174.883 86.1275 175.161 86.4962 175.53C86.8695 175.894 87.0562 176.379 87.0562 176.986C87.0562 177.41 86.9372 177.807 86.6992 178.176C86.4612 178.544 86.1112 178.843 85.6492 179.072C85.1872 179.296 84.6155 179.408 83.9342 179.408ZM91.7447 179.408C91.166 179.408 90.655 179.261 90.2117 178.967C89.773 178.668 89.4277 178.26 89.1757 177.742C88.9237 177.219 88.7977 176.624 88.7977 175.957C88.7977 175.229 88.9213 174.603 89.1687 174.081C89.4207 173.558 89.766 173.157 90.2047 172.877C90.648 172.597 91.1613 172.457 91.7447 172.457C92.2347 172.457 92.65 172.557 92.9907 172.758C93.336 172.954 93.6137 173.222 93.8237 173.563C94.0337 173.903 94.1807 174.288 94.2647 174.718C94.3533 175.147 94.3883 175.59 94.3697 176.048H89.4627V175.488H93.8727L93.5507 175.698C93.5647 175.394 93.546 175.093 93.4947 174.795C93.448 174.491 93.357 174.214 93.2217 173.962C93.091 173.71 92.9067 173.507 92.6687 173.353C92.4307 173.199 92.125 173.122 91.7517 173.122C91.2757 173.122 90.879 173.245 90.5617 173.493C90.2443 173.735 90.0063 174.053 89.8477 174.445C89.6937 174.832 89.6167 175.247 89.6167 175.691V176.034C89.6167 176.542 89.6937 177 89.8477 177.406C90.0063 177.812 90.242 178.134 90.5547 178.372C90.872 178.61 91.2687 178.729 91.7447 178.729C92.2347 178.729 92.6337 178.61 92.9417 178.372C93.2543 178.129 93.441 177.774 93.5017 177.308H94.3697C94.2997 177.751 94.1433 178.129 93.9007 178.442C93.6627 178.754 93.3593 178.995 92.9907 179.163C92.622 179.326 92.2067 179.408 91.7447 179.408ZM101.158 172.604H101.97V179.254H101.158V172.604ZM96.37 172.604H97.182V176.776C97.182 177.392 97.3314 177.863 97.63 178.19C97.9334 178.512 98.3697 178.673 98.939 178.673C99.4057 178.673 99.8047 178.547 100.136 178.295C100.467 178.043 100.719 177.704 100.892 177.28C101.069 176.855 101.158 176.386 101.158 175.873H101.543C101.543 176.582 101.433 177.2 101.214 177.728C100.995 178.255 100.684 178.663 100.283 178.953C99.8817 179.237 99.4057 179.38 98.855 179.38C98.3417 179.38 97.8984 179.284 97.525 179.093C97.1564 178.901 96.8717 178.617 96.671 178.239C96.4704 177.856 96.37 177.382 96.37 176.818V172.604ZM110.352 179.408C109.773 179.408 109.262 179.261 108.819 178.967C108.38 178.668 108.035 178.26 107.783 177.742C107.531 177.219 107.405 176.624 107.405 175.957C107.405 175.229 107.529 174.603 107.776 174.081C108.028 173.558 108.373 173.157 108.812 172.877C109.255 172.597 109.769 172.457 110.352 172.457C110.842 172.457 111.257 172.557 111.598 172.758C111.943 172.954 112.221 173.222 112.431 173.563C112.641 173.903 112.788 174.288 112.872 174.718C112.961 175.147 112.996 175.59 112.977 176.048H108.07V175.488H112.48L112.158 175.698C112.172 175.394 112.153 175.093 112.102 174.795C112.055 174.491 111.964 174.214 111.829 173.962C111.698 173.71 111.514 173.507 111.276 173.353C111.038 173.199 110.732 173.122 110.359 173.122C109.883 173.122 109.486 173.245 109.169 173.493C108.852 173.735 108.614 174.053 108.455 174.445C108.301 174.832 108.224 175.247 108.224 175.691V176.034C108.224 176.542 108.301 177 108.455 177.406C108.614 177.812 108.849 178.134 109.162 178.372C109.479 178.61 109.876 178.729 110.352 178.729C110.842 178.729 111.241 178.61 111.549 178.372C111.862 178.129 112.048 177.774 112.109 177.308H112.977C112.907 177.751 112.751 178.129 112.508 178.442C112.27 178.754 111.967 178.995 111.598 179.163C111.229 179.326 110.814 179.408 110.352 179.408ZM117.546 179.408C116.902 179.408 116.37 179.314 115.95 179.128C115.535 178.941 115.222 178.689 115.012 178.372C114.802 178.054 114.688 177.7 114.669 177.308H115.481C115.509 177.779 115.698 178.136 116.048 178.379C116.403 178.617 116.886 178.736 117.497 178.736C117.815 178.736 118.109 178.684 118.379 178.582C118.65 178.474 118.867 178.33 119.03 178.148C119.198 177.961 119.282 177.751 119.282 177.518C119.282 177.219 119.173 176.986 118.953 176.818C118.734 176.65 118.386 176.505 117.91 176.384L116.699 176.02C116.116 175.852 115.67 175.614 115.362 175.306C115.054 174.993 114.9 174.62 114.9 174.186C114.9 173.663 115.127 173.245 115.579 172.933C116.032 172.615 116.622 172.457 117.35 172.457C118.144 172.457 118.762 172.613 119.205 172.926C119.649 173.238 119.882 173.628 119.905 174.095H119.065C119.014 173.763 118.844 173.518 118.554 173.36C118.265 173.196 117.864 173.115 117.35 173.115C116.842 173.115 116.447 173.231 116.167 173.465C115.887 173.698 115.747 173.952 115.747 174.228C115.747 174.76 116.205 175.149 117.119 175.397L118.309 175.768C118.907 175.936 119.362 176.16 119.674 176.44C119.992 176.72 120.15 177.079 120.15 177.518C120.15 177.84 120.045 178.145 119.835 178.435C119.63 178.724 119.334 178.96 118.946 179.142C118.559 179.319 118.092 179.408 117.546 179.408ZM125.399 179.408C124.914 179.408 124.487 179.293 124.118 179.065C123.754 178.836 123.47 178.507 123.264 178.078C123.064 177.648 122.963 177.133 122.963 176.531H123.355C123.355 177.002 123.449 177.399 123.635 177.721C123.827 178.038 124.072 178.278 124.37 178.442C124.674 178.605 124.993 178.687 125.329 178.687C125.698 178.687 126.046 178.579 126.372 178.365C126.699 178.15 126.965 177.837 127.17 177.427C127.376 177.011 127.478 176.507 127.478 175.915C127.478 175.331 127.38 174.837 127.184 174.431C126.988 174.02 126.727 173.707 126.4 173.493C126.078 173.273 125.724 173.164 125.336 173.164C125 173.164 124.681 173.248 124.377 173.416C124.074 173.584 123.827 173.831 123.635 174.158C123.449 174.48 123.355 174.881 123.355 175.362H122.963C122.963 174.746 123.068 174.221 123.278 173.787C123.493 173.353 123.785 173.024 124.153 172.8C124.522 172.571 124.94 172.457 125.406 172.457C125.924 172.457 126.405 172.597 126.848 172.877C127.292 173.152 127.649 173.549 127.919 174.067C128.19 174.58 128.325 175.196 128.325 175.915C128.325 176.643 128.188 177.268 127.912 177.791C127.642 178.313 127.282 178.715 126.834 178.995C126.391 179.27 125.913 179.408 125.399 179.408ZM122.543 182.53V172.611H123.229L123.355 174.123V182.53H122.543ZM134.608 179.254L134.503 177.875V174.935C134.503 174.267 134.358 173.794 134.069 173.514C133.78 173.234 133.367 173.094 132.83 173.094C132.531 173.094 132.254 173.138 131.997 173.227C131.74 173.311 131.535 173.448 131.381 173.64C131.227 173.826 131.15 174.074 131.15 174.382H130.226C130.226 173.91 130.343 173.535 130.576 173.255C130.809 172.97 131.122 172.767 131.514 172.646C131.911 172.52 132.349 172.457 132.83 172.457C133.306 172.457 133.731 172.541 134.104 172.709C134.477 172.872 134.771 173.138 134.986 173.507C135.205 173.871 135.315 174.351 135.315 174.949V179.254H134.608ZM132.298 179.408C131.766 179.408 131.327 179.312 130.982 179.121C130.637 178.925 130.38 178.675 130.212 178.372C130.044 178.068 129.96 177.756 129.96 177.434C129.96 176.967 130.072 176.594 130.296 176.314C130.525 176.034 130.828 175.831 131.206 175.705C131.589 175.579 132.006 175.516 132.459 175.516C132.8 175.516 133.152 175.555 133.516 175.635C133.885 175.709 134.237 175.814 134.573 175.95V176.496C134.284 176.37 133.95 176.269 133.572 176.195C133.194 176.12 132.851 176.083 132.543 176.083C132.067 176.083 131.661 176.185 131.325 176.391C130.989 176.596 130.821 176.944 130.821 177.434C130.821 177.802 130.945 178.115 131.192 178.372C131.444 178.628 131.848 178.757 132.403 178.757C132.781 178.757 133.129 178.666 133.446 178.484C133.763 178.302 134.018 178.075 134.209 177.805C134.405 177.534 134.503 177.261 134.503 176.986H134.706C134.706 177.41 134.606 177.807 134.405 178.176C134.209 178.544 133.929 178.843 133.565 179.072C133.206 179.296 132.783 179.408 132.298 179.408ZM140.26 179.408C139.742 179.408 139.256 179.265 138.804 178.981C138.351 178.696 137.985 178.292 137.705 177.77C137.429 177.247 137.292 176.629 137.292 175.915C137.292 175.191 137.429 174.573 137.705 174.06C137.985 173.542 138.351 173.145 138.804 172.87C139.256 172.594 139.742 172.457 140.26 172.457C140.605 172.457 140.918 172.508 141.198 172.611C141.482 172.709 141.732 172.849 141.947 173.031C142.166 173.208 142.353 173.416 142.507 173.654C142.661 173.887 142.78 174.139 142.864 174.41L142.017 174.536C141.881 174.106 141.66 173.77 141.352 173.528C141.044 173.285 140.675 173.164 140.246 173.164C139.882 173.164 139.539 173.269 139.217 173.479C138.899 173.689 138.64 173.999 138.44 174.41C138.239 174.816 138.139 175.317 138.139 175.915C138.139 176.456 138.227 176.937 138.405 177.357C138.587 177.772 138.836 178.099 139.154 178.337C139.471 178.57 139.835 178.687 140.246 178.687C140.81 178.687 141.247 178.547 141.555 178.267C141.863 177.987 142.017 177.592 142.017 177.084H142.864C142.864 177.541 142.754 177.945 142.535 178.295C142.315 178.645 142.01 178.918 141.618 179.114C141.226 179.31 140.773 179.408 140.26 179.408ZM138.909 181.697L139.077 181.298C139.436 181.498 139.76 181.613 140.05 181.641C140.344 181.669 140.577 181.631 140.75 181.529C140.927 181.431 141.02 181.295 141.03 181.123C141.044 180.945 140.974 180.791 140.82 180.661C140.666 180.53 140.474 180.42 140.246 180.332C140.022 180.243 139.802 180.175 139.588 180.129L140.064 178.932L140.638 178.967L140.183 180.108L139.91 179.723C140.316 179.825 140.661 179.942 140.946 180.073C141.235 180.208 141.452 180.362 141.597 180.535C141.746 180.712 141.811 180.917 141.793 181.151C141.774 181.417 141.662 181.627 141.457 181.781C141.251 181.939 140.997 182.042 140.694 182.089C140.39 182.135 140.078 182.126 139.756 182.061C139.438 181.995 139.156 181.874 138.909 181.697ZM147.439 179.408C146.846 179.408 146.324 179.275 145.871 179.009C145.418 178.743 145.061 178.351 144.8 177.833C144.543 177.315 144.415 176.68 144.415 175.929C144.415 175.177 144.543 174.545 144.8 174.032C145.061 173.514 145.418 173.122 145.871 172.856C146.324 172.59 146.846 172.457 147.439 172.457C148.032 172.457 148.554 172.59 149.007 172.856C149.46 173.122 149.814 173.514 150.071 174.032C150.328 174.545 150.456 175.177 150.456 175.929C150.456 176.68 150.328 177.315 150.071 177.833C149.814 178.351 149.46 178.743 149.007 179.009C148.554 179.275 148.032 179.408 147.439 179.408ZM147.425 178.701C147.915 178.701 148.323 178.586 148.65 178.358C148.977 178.124 149.219 177.8 149.378 177.385C149.541 176.969 149.623 176.484 149.623 175.929C149.623 175.093 149.443 174.421 149.084 173.913C148.729 173.404 148.186 173.15 147.453 173.15C146.963 173.15 146.555 173.266 146.228 173.5C145.906 173.728 145.663 174.053 145.5 174.473C145.341 174.888 145.262 175.373 145.262 175.929C145.262 176.759 145.439 177.429 145.794 177.938C146.153 178.446 146.697 178.701 147.425 178.701ZM158.2 179.408C157.672 179.408 157.185 179.265 156.737 178.981C156.293 178.691 155.939 178.285 155.673 177.763C155.407 177.24 155.274 176.622 155.274 175.908C155.274 175.194 155.404 174.58 155.666 174.067C155.932 173.549 156.282 173.152 156.716 172.877C157.154 172.597 157.633 172.457 158.151 172.457C158.631 172.457 159.058 172.576 159.432 172.814C159.805 173.047 160.097 173.383 160.307 173.822C160.517 174.256 160.622 174.778 160.622 175.39H160.251C160.251 174.9 160.155 174.491 159.964 174.165C159.777 173.833 159.532 173.584 159.229 173.416C158.925 173.248 158.601 173.164 158.256 173.164C157.878 173.164 157.525 173.273 157.199 173.493C156.877 173.712 156.615 174.025 156.415 174.431C156.219 174.837 156.121 175.329 156.121 175.908C156.121 176.491 156.219 176.99 156.415 177.406C156.611 177.821 156.872 178.138 157.199 178.358C157.525 178.577 157.88 178.687 158.263 178.687C158.589 178.687 158.904 178.603 159.208 178.435C159.511 178.267 159.761 178.019 159.957 177.693C160.153 177.361 160.251 176.955 160.251 176.475H160.622C160.622 177.091 160.514 177.618 160.3 178.057C160.09 178.495 159.8 178.831 159.432 179.065C159.068 179.293 158.657 179.408 158.2 179.408ZM160.37 179.254L160.251 177.742V169.734H161.056V179.254H160.37ZM166.229 179.408C165.65 179.408 165.139 179.261 164.696 178.967C164.257 178.668 163.912 178.26 163.66 177.742C163.408 177.219 163.282 176.624 163.282 175.957C163.282 175.229 163.406 174.603 163.653 174.081C163.905 173.558 164.25 173.157 164.689 172.877C165.132 172.597 165.646 172.457 166.229 172.457C166.719 172.457 167.134 172.557 167.475 172.758C167.82 172.954 168.098 173.222 168.308 173.563C168.518 173.903 168.665 174.288 168.749 174.718C168.838 175.147 168.873 175.59 168.854 176.048H163.947V175.488H168.357L168.035 175.698C168.049 175.394 168.03 175.093 167.979 174.795C167.932 174.491 167.841 174.214 167.706 173.962C167.575 173.71 167.391 173.507 167.153 173.353C166.915 173.199 166.609 173.122 166.236 173.122C165.76 173.122 165.363 173.245 165.046 173.493C164.729 173.735 164.491 174.053 164.332 174.445C164.178 174.832 164.101 175.247 164.101 175.691V176.034C164.101 176.542 164.178 177 164.332 177.406C164.491 177.812 164.726 178.134 165.039 178.372C165.356 178.61 165.753 178.729 166.229 178.729C166.719 178.729 167.118 178.61 167.426 178.372C167.739 178.129 167.925 177.774 167.986 177.308H168.854C168.784 177.751 168.628 178.129 168.385 178.442C168.147 178.754 167.844 178.995 167.475 179.163C167.106 179.326 166.691 179.408 166.229 179.408ZM176.531 179.408C176.013 179.408 175.528 179.265 175.075 178.981C174.623 178.696 174.256 178.292 173.976 177.77C173.701 177.247 173.563 176.629 173.563 175.915C173.563 175.191 173.701 174.573 173.976 174.06C174.256 173.542 174.623 173.145 175.075 172.87C175.528 172.594 176.013 172.457 176.531 172.457C176.877 172.457 177.189 172.508 177.469 172.611C177.754 172.709 178.004 172.849 178.218 173.031C178.438 173.208 178.624 173.416 178.778 173.654C178.932 173.887 179.051 174.139 179.135 174.41L178.288 174.536C178.153 174.106 177.931 173.77 177.623 173.528C177.315 173.285 176.947 173.164 176.517 173.164C176.153 173.164 175.81 173.269 175.488 173.479C175.171 173.689 174.912 173.999 174.711 174.41C174.511 174.816 174.41 175.317 174.41 175.915C174.41 176.456 174.499 176.937 174.676 177.357C174.858 177.772 175.108 178.099 175.425 178.337C175.743 178.57 176.107 178.687 176.517 178.687C177.082 178.687 177.518 178.547 177.826 178.267C178.134 177.987 178.288 177.592 178.288 177.084H179.135C179.135 177.541 179.026 177.945 178.806 178.295C178.587 178.645 178.281 178.918 177.889 179.114C177.497 179.31 177.045 179.408 176.531 179.408ZM183.71 179.408C183.118 179.408 182.595 179.275 182.142 179.009C181.69 178.743 181.333 178.351 181.071 177.833C180.815 177.315 180.686 176.68 180.686 175.929C180.686 175.177 180.815 174.545 181.071 174.032C181.333 173.514 181.69 173.122 182.142 172.856C182.595 172.59 183.118 172.457 183.71 172.457C184.303 172.457 184.826 172.59 185.278 172.856C185.731 173.122 186.086 173.514 186.342 174.032C186.599 174.545 186.727 175.177 186.727 175.929C186.727 176.68 186.599 177.315 186.342 177.833C186.086 178.351 185.731 178.743 185.278 179.009C184.826 179.275 184.303 179.408 183.71 179.408ZM183.696 178.701C184.186 178.701 184.595 178.586 184.921 178.358C185.248 178.124 185.491 177.8 185.649 177.385C185.813 176.969 185.894 176.484 185.894 175.929C185.894 175.093 185.715 174.421 185.355 173.913C185.001 173.404 184.457 173.15 183.724 173.15C183.234 173.15 182.826 173.266 182.499 173.5C182.177 173.728 181.935 174.053 181.771 174.473C181.613 174.888 181.533 175.373 181.533 175.929C181.533 176.759 181.711 177.429 182.065 177.938C182.425 178.446 182.968 178.701 183.696 178.701ZM198.419 179.254V175.341C198.419 174.636 198.251 174.097 197.915 173.724C197.579 173.35 197.12 173.164 196.536 173.164C195.874 173.164 195.372 173.416 195.031 173.92C194.691 174.419 194.52 175.086 194.52 175.922H194.107C194.107 175.376 194.163 174.888 194.275 174.459C194.387 174.025 194.553 173.661 194.772 173.367C194.992 173.068 195.262 172.842 195.584 172.688C195.911 172.534 196.287 172.457 196.711 172.457C197.225 172.457 197.668 172.571 198.041 172.8C198.419 173.028 198.711 173.36 198.916 173.794C199.122 174.223 199.224 174.739 199.224 175.341V179.254H198.419ZM188.92 179.254V172.611H189.606L189.704 174.046C189.905 173.546 190.199 173.157 190.586 172.877C190.974 172.597 191.447 172.457 192.007 172.457C192.521 172.457 192.964 172.571 193.337 172.8C193.715 173.028 194.007 173.36 194.212 173.794C194.418 174.223 194.52 174.739 194.52 175.341V179.254H193.729V175.341C193.729 174.636 193.559 174.097 193.218 173.724C192.882 173.35 192.418 173.164 191.825 173.164C191.391 173.164 191.016 173.283 190.698 173.521C190.386 173.759 190.145 174.092 189.977 174.522C189.814 174.951 189.732 175.453 189.732 176.027V179.254H188.92ZM204.778 179.408C204.293 179.408 203.866 179.293 203.497 179.065C203.133 178.836 202.848 178.507 202.643 178.078C202.442 177.648 202.342 177.133 202.342 176.531H202.734C202.734 177.002 202.827 177.399 203.014 177.721C203.205 178.038 203.45 178.278 203.749 178.442C204.052 178.605 204.372 178.687 204.708 178.687C205.077 178.687 205.424 178.579 205.751 178.365C206.078 178.15 206.344 177.837 206.549 177.427C206.754 177.011 206.857 176.507 206.857 175.915C206.857 175.331 206.759 174.837 206.563 174.431C206.367 174.02 206.106 173.707 205.779 173.493C205.457 173.273 205.102 173.164 204.715 173.164C204.379 173.164 204.059 173.248 203.756 173.416C203.453 173.584 203.205 173.831 203.014 174.158C202.827 174.48 202.734 174.881 202.734 175.362H202.342C202.342 174.746 202.447 174.221 202.657 173.787C202.872 173.353 203.163 173.024 203.532 172.8C203.901 172.571 204.318 172.457 204.785 172.457C205.303 172.457 205.784 172.597 206.227 172.877C206.67 173.152 207.027 173.549 207.298 174.067C207.569 174.58 207.704 175.196 207.704 175.915C207.704 176.643 207.566 177.268 207.291 177.791C207.02 178.313 206.661 178.715 206.213 178.995C205.77 179.27 205.291 179.408 204.778 179.408ZM201.922 182.53V172.611H202.608L202.734 174.123V182.53H201.922ZM209.934 179.254V172.604H210.746V179.254H209.934ZM210.445 176.209C210.445 175.378 210.517 174.687 210.662 174.137C210.807 173.586 211.031 173.173 211.334 172.898C211.637 172.622 212.025 172.485 212.496 172.485C212.659 172.485 212.809 172.496 212.944 172.52C213.084 172.543 213.224 172.58 213.364 172.632L213.273 173.423C213.138 173.371 212.988 173.329 212.825 173.297C212.662 173.259 212.519 173.241 212.398 173.241C211.983 173.241 211.654 173.367 211.411 173.619C211.173 173.871 211.003 174.221 210.9 174.669C210.797 175.112 210.746 175.625 210.746 176.209H210.445ZM218.827 179.254L218.722 177.875V174.935C218.722 174.267 218.577 173.794 218.288 173.514C217.998 173.234 217.585 173.094 217.049 173.094C216.75 173.094 216.472 173.138 216.216 173.227C215.959 173.311 215.754 173.448 215.6 173.64C215.446 173.826 215.369 174.074 215.369 174.382H214.445C214.445 173.91 214.561 173.535 214.795 173.255C215.028 172.97 215.341 172.767 215.733 172.646C216.129 172.52 216.568 172.457 217.049 172.457C217.525 172.457 217.949 172.541 218.323 172.709C218.696 172.872 218.99 173.138 219.205 173.507C219.424 173.871 219.534 174.351 219.534 174.949V179.254H218.827ZM216.517 179.408C215.985 179.408 215.546 179.312 215.201 179.121C214.855 178.925 214.599 178.675 214.431 178.372C214.263 178.068 214.179 177.756 214.179 177.434C214.179 176.967 214.291 176.594 214.515 176.314C214.743 176.034 215.047 175.831 215.425 175.705C215.807 175.579 216.225 175.516 216.678 175.516C217.018 175.516 217.371 175.555 217.735 175.635C218.103 175.709 218.456 175.814 218.792 175.95V176.496C218.502 176.37 218.169 176.269 217.791 176.195C217.413 176.12 217.07 176.083 216.762 176.083C216.286 176.083 215.88 176.185 215.544 176.391C215.208 176.596 215.04 176.944 215.04 177.434C215.04 177.802 215.163 178.115 215.411 178.372C215.663 178.628 216.066 178.757 216.622 178.757C217 178.757 217.347 178.666 217.665 178.484C217.982 178.302 218.236 178.075 218.428 177.805C218.624 177.534 218.722 177.261 218.722 176.986H218.925C218.925 177.41 218.824 177.807 218.624 178.176C218.428 178.544 218.148 178.843 217.784 179.072C217.424 179.296 217.002 179.408 216.517 179.408ZM227.67 179.408C227.092 179.408 226.581 179.261 226.137 178.967C225.699 178.668 225.353 178.26 225.101 177.742C224.849 177.219 224.723 176.624 224.723 175.957C224.723 175.229 224.847 174.603 225.094 174.081C225.346 173.558 225.692 173.157 226.13 172.877C226.574 172.597 227.087 172.457 227.67 172.457C228.16 172.457 228.576 172.557 228.916 172.758C229.262 172.954 229.539 173.222 229.749 173.563C229.959 173.903 230.106 174.288 230.19 174.718C230.279 175.147 230.314 175.59 230.295 176.048H225.388V175.488H229.798L229.476 175.698C229.49 175.394 229.472 175.093 229.42 174.795C229.374 174.491 229.283 174.214 229.147 173.962C229.017 173.71 228.832 173.507 228.594 173.353C228.356 173.199 228.051 173.122 227.677 173.122C227.201 173.122 226.805 173.245 226.487 173.493C226.17 173.735 225.932 174.053 225.773 174.445C225.619 174.832 225.542 175.247 225.542 175.691V176.034C225.542 176.542 225.619 177 225.773 177.406C225.932 177.812 226.168 178.134 226.48 178.372C226.798 178.61 227.194 178.729 227.67 178.729C228.16 178.729 228.559 178.61 228.867 178.372C229.18 178.129 229.367 177.774 229.427 177.308H230.295C230.225 177.751 230.069 178.129 229.826 178.442C229.588 178.754 229.285 178.995 228.916 179.163C228.548 179.326 228.132 179.408 227.67 179.408ZM234.557 172.611H235.474L237.812 178.554H237.644L239.982 172.611H240.899L238.155 179.254H237.301L234.557 172.611ZM244.87 179.408C244.291 179.408 243.78 179.261 243.337 178.967C242.898 178.668 242.553 178.26 242.301 177.742C242.049 177.219 241.923 176.624 241.923 175.957C241.923 175.229 242.046 174.603 242.294 174.081C242.546 173.558 242.891 173.157 243.33 172.877C243.773 172.597 244.286 172.457 244.87 172.457C245.36 172.457 245.775 172.557 246.116 172.758C246.461 172.954 246.739 173.222 246.949 173.563C247.159 173.903 247.306 174.288 247.39 174.718C247.478 175.147 247.513 175.59 247.495 176.048H242.588V175.488H246.998L246.676 175.698C246.69 175.394 246.671 175.093 246.62 174.795C246.573 174.491 246.482 174.214 246.347 173.962C246.216 173.71 246.032 173.507 245.794 173.353C245.556 173.199 245.25 173.122 244.877 173.122C244.401 173.122 244.004 173.245 243.687 173.493C243.369 173.735 243.131 174.053 242.973 174.445C242.819 174.832 242.742 175.247 242.742 175.691V176.034C242.742 176.542 242.819 177 242.973 177.406C243.131 177.812 243.367 178.134 243.68 178.372C243.997 178.61 244.394 178.729 244.87 178.729C245.36 178.729 245.759 178.61 246.067 178.372C246.379 178.129 246.566 177.774 246.627 177.308H247.495C247.425 177.751 247.268 178.129 247.026 178.442C246.788 178.754 246.484 178.995 246.116 179.163C245.747 179.326 245.332 179.408 244.87 179.408ZM254.528 179.254V175.341C254.528 174.636 254.358 174.097 254.017 173.724C253.681 173.35 253.217 173.164 252.624 173.164C252.19 173.164 251.814 173.283 251.497 173.521C251.184 173.759 250.944 174.092 250.776 174.522C250.613 174.951 250.531 175.453 250.531 176.027H250.174C250.174 175.299 250.272 174.669 250.468 174.137C250.669 173.6 250.963 173.187 251.35 172.898C251.742 172.604 252.227 172.457 252.806 172.457C253.319 172.457 253.763 172.571 254.136 172.8C254.514 173.028 254.806 173.36 255.011 173.794C255.216 174.223 255.319 174.739 255.319 175.341V179.254H254.528ZM249.719 179.254V172.611H250.405L250.531 174.249V179.254H249.719ZM260.37 179.408C259.842 179.408 259.355 179.265 258.907 178.981C258.463 178.691 258.109 178.285 257.843 177.763C257.577 177.24 257.444 176.622 257.444 175.908C257.444 175.194 257.574 174.58 257.836 174.067C258.102 173.549 258.452 173.152 258.886 172.877C259.324 172.597 259.803 172.457 260.321 172.457C260.801 172.457 261.228 172.576 261.602 172.814C261.975 173.047 262.267 173.383 262.477 173.822C262.687 174.256 262.792 174.778 262.792 175.39H262.421C262.421 174.9 262.325 174.491 262.134 174.165C261.947 173.833 261.702 173.584 261.399 173.416C261.095 173.248 260.771 173.164 260.426 173.164C260.048 173.164 259.695 173.273 259.369 173.493C259.047 173.712 258.785 174.025 258.585 174.431C258.389 174.837 258.291 175.329 258.291 175.908C258.291 176.491 258.389 176.99 258.585 177.406C258.781 177.821 259.042 178.138 259.369 178.358C259.695 178.577 260.05 178.687 260.433 178.687C260.759 178.687 261.074 178.603 261.378 178.435C261.681 178.267 261.931 178.019 262.127 177.693C262.323 177.361 262.421 176.955 262.421 176.475H262.792C262.792 177.091 262.684 177.618 262.47 178.057C262.26 178.495 261.97 178.831 261.602 179.065C261.238 179.293 260.827 179.408 260.37 179.408ZM262.54 179.254L262.421 177.742V169.734H263.226V179.254H262.54ZM270.233 179.254L270.128 177.875V174.935C270.128 174.267 269.983 173.794 269.694 173.514C269.405 173.234 268.992 173.094 268.455 173.094C268.156 173.094 267.879 173.138 267.622 173.227C267.365 173.311 267.16 173.448 267.006 173.64C266.852 173.826 266.775 174.074 266.775 174.382H265.851C265.851 173.91 265.968 173.535 266.201 173.255C266.434 172.97 266.747 172.767 267.139 172.646C267.536 172.52 267.974 172.457 268.455 172.457C268.931 172.457 269.356 172.541 269.729 172.709C270.102 172.872 270.396 173.138 270.611 173.507C270.83 173.871 270.94 174.351 270.94 174.949V179.254H270.233ZM267.923 179.408C267.391 179.408 266.952 179.312 266.607 179.121C266.262 178.925 266.005 178.675 265.837 178.372C265.669 178.068 265.585 177.756 265.585 177.434C265.585 176.967 265.697 176.594 265.921 176.314C266.15 176.034 266.453 175.831 266.831 175.705C267.214 175.579 267.631 175.516 268.084 175.516C268.425 175.516 268.777 175.555 269.141 175.635C269.51 175.709 269.862 175.814 270.198 175.95V176.496C269.909 176.37 269.575 176.269 269.197 176.195C268.819 176.12 268.476 176.083 268.168 176.083C267.692 176.083 267.286 176.185 266.95 176.391C266.614 176.596 266.446 176.944 266.446 177.434C266.446 177.802 266.57 178.115 266.817 178.372C267.069 178.628 267.473 178.757 268.028 178.757C268.406 178.757 268.754 178.666 269.071 178.484C269.388 178.302 269.643 178.075 269.834 177.805C270.03 177.534 270.128 177.261 270.128 176.986H270.331C270.331 177.41 270.231 177.807 270.03 178.176C269.834 178.544 269.554 178.843 269.19 179.072C268.831 179.296 268.408 179.408 267.923 179.408Z" fill="#5F5B62"/>
</svg>
